<svg width="39" height="15" viewBox="0 0 39 15" fill="none" xmlns="http://www.w3.org/2000/svg">
<path d="M39 0.675003L10.4683 12.8235C8.10225 13.8245 6.11488 14.3266 4.50775 14.3266C2.68775 14.3266 1.36663 13.6896 0.547628 12.414C0.0325027 11.595 -0.118622 10.5566 0.0926276 9.29725C0.303878 8.03788 0.866128 6.69725 1.77613 5.2705C2.535 4.11675 3.77813 2.60063 5.50875 0.720503C4.92174 1.64458 4.49129 2.65922 4.23475 3.7235C3.77975 5.66538 4.18925 7.0905 5.46325 8.0005C6.06938 8.42463 6.903 8.6375 7.96575 8.6375C8.814 8.6375 9.7695 8.501 10.8323 8.228L39 0.675003Z" fill="black"/>
</svg>
